<!-- SVG icon 512x512 -->
<svg xmlns="http://www.w3.org/2000/svg" viewBox="0 0 512 512" width="512" height="512">
  <rect width="512" height="512" rx="100" fill="#FF8C42"/>
  <!-- Cat face -->
  <polygon points="120,200 145,95 200,175" fill="#FEEED4"/>
  <polygon points="392,200 367,95 312,175" fill="#FEEED4"/>
  <circle cx="256" cy="268" r="155" fill="#FEEED4"/>
  <!-- Eyes -->
  <ellipse cx="200" cy="255" rx="32" ry="38" fill="#4A3728"/>
  <ellipse cx="312" cy="255" rx="32" ry="38" fill="#4A3728"/>
  <!-- Eye highlights -->
  <circle cx="212" cy="242" r="10" fill="white"/>
  <circle cx="324" cy="242" r="10" fill="white"/>
  <!-- Nose -->
  <ellipse cx="256" cy="300" rx="18" ry="13" fill="#FF8C42"/>
  <!-- Mouth -->
  <path d="M235,318 Q256,335 277,318" stroke="#4A3728" stroke-width="6" fill="none" stroke-linecap="round"/>
  <!-- Whiskers -->
  <line x1="132" y1="288" x2="208" y2="300" stroke="#4A3728" stroke-width="5" stroke-linecap="round"/>
  <line x1="132" y1="318" x2="208" y2="318" stroke="#4A3728" stroke-width="5" stroke-linecap="round"/>
  <line x1="132" y1="348" x2="208" y2="332" stroke="#4A3728" stroke-width="5" stroke-linecap="round"/>
  <line x1="380" y1="288" x2="304" y2="300" stroke="#4A3728" stroke-width="5" stroke-linecap="round"/>
  <line x1="380" y1="318" x2="304" y2="318" stroke="#4A3728" stroke-width="5" stroke-linecap="round"/>
  <line x1="380" y1="348" x2="304" y2="332" stroke="#4A3728" stroke-width="5" stroke-linecap="round"/>
  <!-- Paw prints -->
  <ellipse cx="65" cy="80" rx="26" ry="21" fill="#FFB74D" opacity="0.5"/>
  <circle cx="52" cy="56" r="13" fill="#FFB74D" opacity="0.5"/>
  <circle cx="78" cy="56" r="13" fill="#FFB74D" opacity="0.5"/>
  <circle cx="46" cy="78" r="10" fill="#FFB74D" opacity="0.5"/>
  <circle cx="84" cy="78" r="10" fill="#FFB74D" opacity="0.5"/>
  <ellipse cx="445" cy="80" rx="26" ry="21" fill="#FFB74D" opacity="0.5"/>
  <circle cx="432" cy="56" r="13" fill="#FFB74D" opacity="0.5"/>
  <circle cx="458" cy="56" r="13" fill="#FFB74D" opacity="0.5"/>
  <circle cx="426" cy="78" r="10" fill="#FFB74D" opacity="0.5"/>
  <circle cx="464" cy="78" r="10" fill="#FFB74D" opacity="0.5"/>
</svg>